<svg width="20" height="20" viewBox="0 0 20 20" fill="none" xmlns="http://www.w3.org/2000/svg">
<g id="Frame 147" clip-path="url(#clip0_140_272)">
<g id="Group 1">
<path id="Rectangle 10" d="M6.66672 19.5832C6.66672 19.8133 6.85327 19.9999 7.08338 19.9999H12.9167C13.1468 19.9999 13.3334 19.8133 13.3334 19.5832V15.5891C13.3334 15.4786 13.2895 15.3726 13.2113 15.2945L10.2947 12.3778C10.132 12.2151 9.86814 12.2151 9.70542 12.3778L6.78876 15.2945C6.71062 15.3726 6.66672 15.4786 6.66672 15.5891V19.5832Z" fill="#89A2EB"/>
<path id="Rectangle 14" d="M6.66672 3.04652C6.66672 3.20481 6.79504 3.33313 6.95333 3.33313H13.0468C13.2051 3.33313 13.3334 3.20481 13.3334 3.04652C13.3334 2.96387 13.2977 2.88525 13.2355 2.83082L10.2744 0.239877C10.1173 0.102419 9.88277 0.102419 9.72567 0.239877L6.76459 2.83082C6.7024 2.88525 6.66672 2.96387 6.66672 3.04652Z" fill="#2E1DEF"/>
<path id="Rectangle 11" d="M6.66672 4.58341C6.66672 4.3533 6.85327 4.16675 7.08338 4.16675H12.9167C13.1468 4.16675 13.3334 4.3533 13.3334 4.58341V7.74416C13.3334 7.85467 13.2895 7.96065 13.2113 8.03879L10.2947 10.9555C10.132 11.1182 9.86814 11.1182 9.70542 10.9555L6.78876 8.03879C6.71062 7.96065 6.66672 7.85467 6.66672 7.74416V4.58341Z" fill="#89A2EB"/>
<path id="Rectangle 12" d="M2.08337 8.33325C1.85325 8.33325 1.6667 8.5198 1.6667 8.74992L1.6667 14.5833C1.6667 14.8134 1.85325 14.9999 2.08337 14.9999H6.07745C6.18795 14.9999 6.29393 14.956 6.37207 14.8779L9.28874 11.9612C9.45146 11.7985 9.45146 11.5347 9.28874 11.372L6.37207 8.45529C6.29393 8.37715 6.18795 8.33325 6.07745 8.33325H2.08337Z" fill="#89A2EB"/>
<path id="Rectangle 13" d="M17.9167 8.33325C18.1468 8.33325 18.3333 8.5198 18.3333 8.74992V14.5833C18.3333 14.8134 18.1468 14.9999 17.9167 14.9999H13.9226C13.8121 14.9999 13.7061 14.956 13.628 14.8779L10.7113 11.9612C10.5486 11.7985 10.5486 11.5347 10.7113 11.372L13.628 8.45529C13.7061 8.37715 13.8121 8.33325 13.9226 8.33325H17.9167Z" fill="#89A2EB"/>
</g>
</g>
<defs>
<clipPath id="clip0_140_272">
<rect width="20" height="20" fill="white"/>
</clipPath>
</defs>
</svg>
