<svg width="20" height="20" viewBox="0 0 20 20" fill="none" xmlns="http://www.w3.org/2000/svg">
<g id="Frame 150" clip-path="url(#clip0_148_314)">
<g id="Group 1">
<path id="Rectangle 10" d="M6.66672 0.416789C6.66672 0.186671 6.85327 0.00012207 7.08338 0.00012207H12.9167C13.1468 0.00012207 13.3334 0.18667 13.3334 0.416789V4.41087C13.3334 4.52137 13.2895 4.62735 13.2113 4.70549L10.2947 7.62216C10.132 7.78488 9.86814 7.78488 9.70542 7.62216L6.78876 4.70549C6.71062 4.62735 6.66672 4.52137 6.66672 4.41087V0.416789Z" fill="#89A2EB"/>
<path id="Rectangle 14" d="M6.66672 16.9535C6.66672 16.7952 6.79504 16.6669 6.95333 16.6669H13.0468C13.2051 16.6669 13.3334 16.7952 13.3334 16.9535C13.3334 17.0361 13.2977 17.1148 13.2355 17.1692L10.2744 19.7601C10.1173 19.8976 9.88277 19.8976 9.72567 19.7601L6.76459 17.1692C6.7024 17.1148 6.66672 17.0361 6.66672 16.9535Z" fill="#2E1DEF"/>
<path id="Rectangle 11" d="M6.66672 15.4166C6.66672 15.6467 6.85327 15.8333 7.08338 15.8333H12.9167C13.1468 15.8333 13.3334 15.6467 13.3334 15.4166V12.2558C13.3334 12.1453 13.2895 12.0394 13.2113 11.9612L10.2947 9.04455C10.132 8.88183 9.86814 8.88183 9.70542 9.04455L6.78876 11.9612C6.71062 12.0394 6.66672 12.1453 6.66672 12.2558V15.4166Z" fill="#89A2EB"/>
<path id="Rectangle 12" d="M2.08337 11.6667C1.85325 11.6667 1.6667 11.4802 1.6667 11.2501L1.6667 5.41675C1.6667 5.18663 1.85325 5.00008 2.08337 5.00008H6.07745C6.18795 5.00008 6.29393 5.04398 6.37207 5.12212L9.28874 8.03879C9.45146 8.20151 9.45146 8.46532 9.28874 8.62804L6.37207 11.5447C6.29393 11.6228 6.18795 11.6667 6.07745 11.6667H2.08337Z" fill="#89A2EB"/>
<path id="Rectangle 13" d="M17.9167 11.6667C18.1468 11.6667 18.3333 11.4802 18.3333 11.2501V5.41675C18.3333 5.18663 18.1468 5.00008 17.9167 5.00008H13.9226C13.8121 5.00008 13.7061 5.04398 13.628 5.12212L10.7113 8.03879C10.5486 8.20151 10.5486 8.46532 10.7113 8.62804L13.628 11.5447C13.7061 11.6228 13.8121 11.6667 13.9226 11.6667H17.9167Z" fill="#89A2EB"/>
</g>
</g>
<defs>
<clipPath id="clip0_148_314">
<rect width="20" height="20" fill="white" transform="matrix(1 0 0 -1 0 20)"/>
</clipPath>
</defs>
</svg>
