<svg width="20" height="20" viewBox="0 0 20 20" fill="none" xmlns="http://www.w3.org/2000/svg">
<g id="Frame 148">
<g id="Group 1">
<path id="Rectangle 10" d="M0.416789 6.66675C0.186671 6.66675 0.00012207 6.8533 0.00012207 7.08341L0.00012207 12.9167C0.00012207 13.1469 0.18667 13.3334 0.416789 13.3334H4.41087C4.52137 13.3334 4.62735 13.2895 4.70549 13.2114L7.62216 10.2947C7.78488 10.132 7.78488 9.86817 7.62216 9.70545L4.70549 6.78879C4.62735 6.71065 4.52137 6.66675 4.41087 6.66675H0.416789Z" fill="#89A2EB"/>
<path id="Rectangle 14" d="M16.9535 6.66675C16.7952 6.66675 16.6669 6.79507 16.6669 6.95336V13.0468C16.6669 13.2051 16.7952 13.3334 16.9535 13.3334C17.0361 13.3334 17.1147 13.2977 17.1692 13.2355L19.7601 10.2745C19.8976 10.1174 19.8976 9.8828 19.7601 9.7257L17.1692 6.76462C17.1147 6.70243 17.0361 6.66675 16.9535 6.66675Z" fill="#2E1DEF"/>
<path id="Rectangle 11" d="M15.4166 6.66675C15.6467 6.66675 15.8333 6.8533 15.8333 7.08341V12.9167C15.8333 13.1469 15.6467 13.3334 15.4166 13.3334H12.2559C12.1453 13.3334 12.0394 13.2895 11.9612 13.2114L9.04456 10.2947C8.88184 10.132 8.88184 9.86817 9.04456 9.70545L11.9612 6.78879C12.0394 6.71065 12.1453 6.66675 12.2559 6.66675H15.4166Z" fill="#89A2EB"/>
<path id="Rectangle 12" d="M11.6667 2.08329C11.6667 1.85317 11.4802 1.66663 11.2501 1.66663H5.41675C5.18663 1.66663 5.00008 1.85317 5.00008 2.08329V6.07737C5.00008 6.18788 5.04398 6.29386 5.12212 6.372L8.03879 9.28866C8.20151 9.45138 8.46532 9.45138 8.62804 9.28866L11.5447 6.372C11.6228 6.29386 11.6667 6.18788 11.6667 6.07737V2.08329Z" fill="#89A2EB"/>
<path id="Rectangle 13" d="M11.6667 17.9167C11.6667 18.1468 11.4802 18.3334 11.2501 18.3334H5.41675C5.18663 18.3334 5.00008 18.1468 5.00008 17.9167V13.9226C5.00008 13.8121 5.04398 13.7061 5.12212 13.628L8.03879 10.7113C8.20151 10.5486 8.46532 10.5486 8.62804 10.7113L11.5447 13.628C11.6228 13.7061 11.6667 13.8121 11.6667 13.9226V17.9167Z" fill="#89A2EB"/>
</g>
</g>
</svg>
