<svg width="20" height="20" viewBox="0 0 20 20" fill="none" xmlns="http://www.w3.org/2000/svg">
<g id="Frame 149">
<g id="Group 1">
<path id="Rectangle 10" d="M19.5832 6.66675C19.8133 6.66675 19.9999 6.8533 19.9999 7.08341V12.9167C19.9999 13.1469 19.8133 13.3334 19.5832 13.3334H15.5891C15.4786 13.3334 15.3726 13.2895 15.2945 13.2114L12.3778 10.2947C12.2151 10.132 12.2151 9.86817 12.3778 9.70545L15.2945 6.78879C15.3726 6.71065 15.4786 6.66675 15.5891 6.66675H19.5832Z" fill="#89A2EB"/>
<path id="Rectangle 14" d="M3.04653 6.66675C3.20482 6.66675 3.33315 6.79507 3.33315 6.95336L3.33315 13.0468C3.33315 13.2051 3.20482 13.3334 3.04653 13.3334C2.96389 13.3334 2.88526 13.2977 2.83084 13.2355L0.239892 10.2745C0.102434 10.1174 0.102435 9.8828 0.239892 9.7257L2.83084 6.76462C2.88526 6.70243 2.96389 6.66675 3.04653 6.66675Z" fill="#2E1DEF"/>
<path id="Rectangle 11" d="M4.5834 6.66675C4.35328 6.66675 4.16673 6.8533 4.16673 7.08341V12.9167C4.16673 13.1469 4.35328 13.3334 4.5834 13.3334H7.74414C7.85465 13.3334 7.96063 13.2895 8.03877 13.2114L10.9554 10.2947C11.1182 10.132 11.1182 9.86817 10.9554 9.70545L8.03877 6.78879C7.96063 6.71065 7.85465 6.66675 7.74414 6.66675H4.5834Z" fill="#89A2EB"/>
<path id="Rectangle 12" d="M8.33327 2.08329C8.33327 1.85317 8.51982 1.66663 8.74993 1.66663H14.5833C14.8134 1.66663 14.9999 1.85317 14.9999 2.08329V6.07737C14.9999 6.18788 14.956 6.29386 14.8779 6.372L11.9612 9.28866C11.7985 9.45138 11.5347 9.45138 11.372 9.28866L8.45531 6.372C8.37717 6.29386 8.33327 6.18788 8.33327 6.07737V2.08329Z" fill="#89A2EB"/>
<path id="Rectangle 13" d="M8.33327 17.9167C8.33327 18.1468 8.51982 18.3334 8.74993 18.3334H14.5833C14.8134 18.3334 14.9999 18.1468 14.9999 17.9167V13.9226C14.9999 13.8121 14.956 13.7061 14.8779 13.628L11.9612 10.7113C11.7985 10.5486 11.5347 10.5486 11.372 10.7113L8.45531 13.628C8.37717 13.7061 8.33327 13.8121 8.33327 13.9226V17.9167Z" fill="#89A2EB"/>
</g>
</g>
</svg>
